<mxfile host="app.diagrams.net" modified="2023-12-06T06:47:58.705Z" agent="Mozilla/5.0 (Windows NT 10.0; Win64; x64) AppleWebKit/537.36 (KHTML, like Gecko) Chrome/118.0.0.0 Safari/537.36 OPR/104.0.0.0 (Edition Yx GX)" etag="h90QEaJGsTfyUAvKGu0w" version="22.1.5" type="github">
  <diagram name="Страница — 1" id="3L8mHeBvSxwh4aUQzGQs">
    <mxGraphModel dx="-1599" dy="3106" grid="1" gridSize="10" guides="1" tooltips="1" connect="1" arrows="1" fold="1" page="1" pageScale="1" pageWidth="827" pageHeight="1169" math="0" shadow="0">
      <root>
        <mxCell id="0" />
        <mxCell id="1" parent="0" />
        <mxCell id="dqEvuDa5oZ0XxsTalBDR-1" value="&lt;p style=&quot;line-height: 110%;&quot;&gt;&lt;span style=&quot;font-size: 18px;&quot;&gt;swap&lt;/span&gt;&lt;/p&gt;" style="ellipse;whiteSpace=wrap;html=1;" vertex="1" parent="1">
          <mxGeometry x="5217" y="-482" width="110" height="60" as="geometry" />
        </mxCell>
        <mxCell id="dqEvuDa5oZ0XxsTalBDR-2" value="" style="edgeStyle=orthogonalEdgeStyle;rounded=0;orthogonalLoop=1;jettySize=auto;html=1;" edge="1" parent="1">
          <mxGeometry relative="1" as="geometry">
            <mxPoint x="5273.18" y="-382" as="targetPoint" />
            <mxPoint x="5273" y="-422" as="sourcePoint" />
          </mxGeometry>
        </mxCell>
        <mxCell id="dqEvuDa5oZ0XxsTalBDR-3" style="edgeStyle=orthogonalEdgeStyle;rounded=0;orthogonalLoop=1;jettySize=auto;html=1;exitX=0.5;exitY=1;exitDx=0;exitDy=0;entryX=0.5;entryY=0;entryDx=0;entryDy=0;" edge="1" parent="1" source="dqEvuDa5oZ0XxsTalBDR-4">
          <mxGeometry relative="1" as="geometry">
            <mxPoint x="5272" y="-280" as="targetPoint" />
          </mxGeometry>
        </mxCell>
        <mxCell id="dqEvuDa5oZ0XxsTalBDR-4" value="&lt;span style=&quot;font-size: 25px;&quot;&gt;obj1, obj2&lt;br&gt;&lt;/span&gt;" style="shape=parallelogram;perimeter=parallelogramPerimeter;whiteSpace=wrap;html=1;fixedSize=1;" vertex="1" parent="1">
          <mxGeometry x="5197" y="-381" width="150" height="60" as="geometry" />
        </mxCell>
        <mxCell id="dqEvuDa5oZ0XxsTalBDR-14" value="&lt;span style=&quot;font-size: 23px;&quot;&gt;tmp = malloc(1)&lt;/span&gt;" style="rounded=0;whiteSpace=wrap;html=1;fontSize=20;" vertex="1" parent="1">
          <mxGeometry x="5160" y="-280.00000000000006" width="224" height="51" as="geometry" />
        </mxCell>
        <mxCell id="dqEvuDa5oZ0XxsTalBDR-15" style="edgeStyle=orthogonalEdgeStyle;rounded=0;orthogonalLoop=1;jettySize=auto;html=1;exitX=0.5;exitY=1;exitDx=0;exitDy=0;entryX=0.5;entryY=0;entryDx=0;entryDy=0;" edge="1" parent="1" source="dqEvuDa5oZ0XxsTalBDR-14" target="dqEvuDa5oZ0XxsTalBDR-16">
          <mxGeometry relative="1" as="geometry">
            <mxPoint x="5280" y="-188" as="targetPoint" />
            <mxPoint x="5280" y="-229" as="sourcePoint" />
          </mxGeometry>
        </mxCell>
        <mxCell id="dqEvuDa5oZ0XxsTalBDR-16" value="&lt;span style=&quot;font-size: 23px;&quot;&gt;memcpy(tmp, obj1)&lt;/span&gt;" style="rounded=0;whiteSpace=wrap;html=1;fontSize=20;" vertex="1" parent="1">
          <mxGeometry x="5160" y="-173.00000000000006" width="224" height="51" as="geometry" />
        </mxCell>
        <mxCell id="dqEvuDa5oZ0XxsTalBDR-17" style="edgeStyle=orthogonalEdgeStyle;rounded=0;orthogonalLoop=1;jettySize=auto;html=1;exitX=0.5;exitY=1;exitDx=0;exitDy=0;entryX=0.5;entryY=0;entryDx=0;entryDy=0;" edge="1" parent="1" target="dqEvuDa5oZ0XxsTalBDR-18">
          <mxGeometry relative="1" as="geometry">
            <mxPoint x="5280" y="-81" as="targetPoint" />
            <mxPoint x="5272" y="-122" as="sourcePoint" />
          </mxGeometry>
        </mxCell>
        <mxCell id="dqEvuDa5oZ0XxsTalBDR-18" value="&lt;span style=&quot;font-size: 23px;&quot;&gt;memcpy(obj1, obj2)&lt;/span&gt;" style="rounded=0;whiteSpace=wrap;html=1;fontSize=20;" vertex="1" parent="1">
          <mxGeometry x="5160" y="-66.00000000000006" width="224" height="51" as="geometry" />
        </mxCell>
        <mxCell id="dqEvuDa5oZ0XxsTalBDR-19" style="edgeStyle=orthogonalEdgeStyle;rounded=0;orthogonalLoop=1;jettySize=auto;html=1;exitX=0.5;exitY=1;exitDx=0;exitDy=0;entryX=0.5;entryY=0;entryDx=0;entryDy=0;" edge="1" parent="1" target="dqEvuDa5oZ0XxsTalBDR-20">
          <mxGeometry relative="1" as="geometry">
            <mxPoint x="5280" y="27.450000000000003" as="targetPoint" />
            <mxPoint x="5272" y="-13.549999999999997" as="sourcePoint" />
          </mxGeometry>
        </mxCell>
        <mxCell id="dqEvuDa5oZ0XxsTalBDR-20" value="&lt;span style=&quot;font-size: 23px;&quot;&gt;&amp;nbsp;memcpy(obj2, tmp)&lt;/span&gt;" style="rounded=0;whiteSpace=wrap;html=1;fontSize=20;" vertex="1" parent="1">
          <mxGeometry x="5160" y="42.449999999999946" width="224" height="51" as="geometry" />
        </mxCell>
        <mxCell id="dqEvuDa5oZ0XxsTalBDR-21" style="edgeStyle=orthogonalEdgeStyle;rounded=0;orthogonalLoop=1;jettySize=auto;html=1;exitX=0.5;exitY=1;exitDx=0;exitDy=0;entryX=0.5;entryY=0;entryDx=0;entryDy=0;" edge="1" parent="1" target="dqEvuDa5oZ0XxsTalBDR-22">
          <mxGeometry relative="1" as="geometry">
            <mxPoint x="5280" y="134.45" as="targetPoint" />
            <mxPoint x="5272" y="93.45" as="sourcePoint" />
          </mxGeometry>
        </mxCell>
        <mxCell id="dqEvuDa5oZ0XxsTalBDR-22" value="&lt;span style=&quot;font-size: 23px;&quot;&gt;free(tmp)&lt;/span&gt;" style="rounded=0;whiteSpace=wrap;html=1;fontSize=20;" vertex="1" parent="1">
          <mxGeometry x="5160" y="149.44999999999993" width="224" height="51" as="geometry" />
        </mxCell>
        <mxCell id="dqEvuDa5oZ0XxsTalBDR-23" style="edgeStyle=orthogonalEdgeStyle;rounded=0;orthogonalLoop=1;jettySize=auto;html=1;exitX=0.5;exitY=1;exitDx=0;exitDy=0;entryX=0.5;entryY=0;entryDx=0;entryDy=0;" edge="1" parent="1" target="dqEvuDa5oZ0XxsTalBDR-24">
          <mxGeometry relative="1" as="geometry">
            <mxPoint x="5272" y="200.45" as="sourcePoint" />
          </mxGeometry>
        </mxCell>
        <mxCell id="dqEvuDa5oZ0XxsTalBDR-24" value="&lt;p style=&quot;line-height: 110%;&quot;&gt;&lt;span style=&quot;font-size: 18px;&quot;&gt;Конец&lt;/span&gt;&lt;/p&gt;" style="ellipse;whiteSpace=wrap;html=1;" vertex="1" parent="1">
          <mxGeometry x="5217" y="253.45" width="110" height="60" as="geometry" />
        </mxCell>
        <mxCell id="dqEvuDa5oZ0XxsTalBDR-25" value="&lt;p style=&quot;line-height: 110%;&quot;&gt;&lt;span style=&quot;font-size: 18px;&quot;&gt;compare&lt;/span&gt;&lt;/p&gt;&lt;p style=&quot;line-height: 110%;&quot;&gt;&lt;span style=&quot;font-size: 18px;&quot;&gt;abonent&lt;/span&gt;&lt;/p&gt;" style="ellipse;whiteSpace=wrap;html=1;" vertex="1" parent="1">
          <mxGeometry x="5617" y="-482" width="110" height="60" as="geometry" />
        </mxCell>
        <mxCell id="dqEvuDa5oZ0XxsTalBDR-26" value="" style="edgeStyle=orthogonalEdgeStyle;rounded=0;orthogonalLoop=1;jettySize=auto;html=1;" edge="1" parent="1">
          <mxGeometry relative="1" as="geometry">
            <mxPoint x="5673.18" y="-382" as="targetPoint" />
            <mxPoint x="5673" y="-422" as="sourcePoint" />
          </mxGeometry>
        </mxCell>
        <mxCell id="dqEvuDa5oZ0XxsTalBDR-27" style="edgeStyle=orthogonalEdgeStyle;rounded=0;orthogonalLoop=1;jettySize=auto;html=1;exitX=0.5;exitY=1;exitDx=0;exitDy=0;entryX=0.5;entryY=0;entryDx=0;entryDy=0;" edge="1" parent="1" source="dqEvuDa5oZ0XxsTalBDR-28">
          <mxGeometry relative="1" as="geometry">
            <mxPoint x="5672" y="-280" as="targetPoint" />
          </mxGeometry>
        </mxCell>
        <mxCell id="dqEvuDa5oZ0XxsTalBDR-28" value="&lt;span style=&quot;font-size: 25px;&quot;&gt;obj1, obj2&lt;br&gt;f&lt;br&gt;&lt;/span&gt;" style="shape=parallelogram;perimeter=parallelogramPerimeter;whiteSpace=wrap;html=1;fixedSize=1;" vertex="1" parent="1">
          <mxGeometry x="5597" y="-381" width="150" height="60" as="geometry" />
        </mxCell>
        <mxCell id="dqEvuDa5oZ0XxsTalBDR-37" style="edgeStyle=orthogonalEdgeStyle;rounded=0;orthogonalLoop=1;jettySize=auto;html=1;exitX=0.5;exitY=1;exitDx=0;exitDy=0;entryX=0.5;entryY=0;entryDx=0;entryDy=0;" edge="1" parent="1" source="dqEvuDa5oZ0XxsTalBDR-36" target="dqEvuDa5oZ0XxsTalBDR-45">
          <mxGeometry relative="1" as="geometry">
            <mxPoint x="6370" y="40" as="targetPoint" />
            <Array as="points">
              <mxPoint x="5672" y="-120" />
              <mxPoint x="6567" y="-120" />
            </Array>
          </mxGeometry>
        </mxCell>
        <mxCell id="dqEvuDa5oZ0XxsTalBDR-38" style="edgeStyle=orthogonalEdgeStyle;rounded=0;orthogonalLoop=1;jettySize=auto;html=1;exitX=0.5;exitY=1;exitDx=0;exitDy=0;entryX=0.5;entryY=0;entryDx=0;entryDy=0;" edge="1" parent="1" source="dqEvuDa5oZ0XxsTalBDR-36" target="dqEvuDa5oZ0XxsTalBDR-43">
          <mxGeometry relative="1" as="geometry">
            <mxPoint x="6100" y="40" as="targetPoint" />
          </mxGeometry>
        </mxCell>
        <mxCell id="dqEvuDa5oZ0XxsTalBDR-39" style="edgeStyle=orthogonalEdgeStyle;rounded=0;orthogonalLoop=1;jettySize=auto;html=1;exitX=0.5;exitY=1;exitDx=0;exitDy=0;entryX=0.5;entryY=0;entryDx=0;entryDy=0;" edge="1" parent="1" source="dqEvuDa5oZ0XxsTalBDR-36" target="dqEvuDa5oZ0XxsTalBDR-42">
          <mxGeometry relative="1" as="geometry">
            <mxPoint x="5790" y="40" as="targetPoint" />
            <Array as="points">
              <mxPoint x="5672" y="-40" />
              <mxPoint x="5802" y="-40" />
            </Array>
          </mxGeometry>
        </mxCell>
        <mxCell id="dqEvuDa5oZ0XxsTalBDR-36" value="&lt;span style=&quot;font-size: 20px;&quot;&gt;f&lt;/span&gt;" style="rhombus;whiteSpace=wrap;html=1;" vertex="1" parent="1">
          <mxGeometry x="5605.3" y="-280" width="133.41" height="80" as="geometry" />
        </mxCell>
        <mxCell id="dqEvuDa5oZ0XxsTalBDR-46" style="edgeStyle=orthogonalEdgeStyle;rounded=0;orthogonalLoop=1;jettySize=auto;html=1;exitX=0.5;exitY=1;exitDx=0;exitDy=0;endArrow=none;endFill=0;" edge="1" parent="1">
          <mxGeometry relative="1" as="geometry">
            <mxPoint x="6177" y="280" as="targetPoint" />
            <mxPoint x="5798.5" y="86.75" as="sourcePoint" />
            <Array as="points">
              <mxPoint x="5799" y="190" />
              <mxPoint x="6177" y="190" />
            </Array>
          </mxGeometry>
        </mxCell>
        <mxCell id="dqEvuDa5oZ0XxsTalBDR-42" value="&lt;font style=&quot;font-size: 19px;&quot;&gt;r = compareAbonentByName(obj1, obj2)&lt;/font&gt;" style="rounded=0;whiteSpace=wrap;html=1;fontSize=20;" vertex="1" parent="1">
          <mxGeometry x="5624" y="33.25" width="355" height="53.5" as="geometry" />
        </mxCell>
        <mxCell id="dqEvuDa5oZ0XxsTalBDR-49" style="edgeStyle=orthogonalEdgeStyle;rounded=0;orthogonalLoop=1;jettySize=auto;html=1;exitX=0.5;exitY=1;exitDx=0;exitDy=0;endArrow=none;endFill=0;" edge="1" parent="1">
          <mxGeometry relative="1" as="geometry">
            <mxPoint x="6177.424242424243" y="240" as="targetPoint" />
            <mxPoint x="6177.5" y="86.75" as="sourcePoint" />
          </mxGeometry>
        </mxCell>
        <mxCell id="dqEvuDa5oZ0XxsTalBDR-43" value="&lt;font style=&quot;font-size: 16px;&quot;&gt;r = compareAbonentByPhoneNumber(obj1, obj2)&lt;/font&gt;" style="rounded=0;whiteSpace=wrap;html=1;fontSize=20;" vertex="1" parent="1">
          <mxGeometry x="6000" y="33.25" width="355" height="53.5" as="geometry" />
        </mxCell>
        <mxCell id="dqEvuDa5oZ0XxsTalBDR-48" style="edgeStyle=orthogonalEdgeStyle;rounded=0;orthogonalLoop=1;jettySize=auto;html=1;exitX=0.5;exitY=1;exitDx=0;exitDy=0;" edge="1" parent="1">
          <mxGeometry relative="1" as="geometry">
            <mxPoint x="6177" y="280" as="targetPoint" />
            <mxPoint x="6567.5" y="86.75" as="sourcePoint" />
            <Array as="points">
              <mxPoint x="6570" y="190" />
              <mxPoint x="6180" y="190" />
            </Array>
          </mxGeometry>
        </mxCell>
        <mxCell id="dqEvuDa5oZ0XxsTalBDR-45" value="&lt;font style=&quot;font-size: 17px;&quot;&gt;r = compareAbonentByTimestamp(obj1, obj2)&lt;/font&gt;" style="rounded=0;whiteSpace=wrap;html=1;fontSize=20;" vertex="1" parent="1">
          <mxGeometry x="6390" y="33.25" width="355" height="53.5" as="geometry" />
        </mxCell>
        <mxCell id="dqEvuDa5oZ0XxsTalBDR-50" style="edgeStyle=orthogonalEdgeStyle;rounded=0;orthogonalLoop=1;jettySize=auto;html=1;exitX=0.5;exitY=1;exitDx=0;exitDy=0;entryX=0.5;entryY=0;entryDx=0;entryDy=0;" edge="1" parent="1" source="dqEvuDa5oZ0XxsTalBDR-52" target="dqEvuDa5oZ0XxsTalBDR-51">
          <mxGeometry relative="1" as="geometry">
            <mxPoint x="6177.5" y="292.75" as="sourcePoint" />
          </mxGeometry>
        </mxCell>
        <mxCell id="dqEvuDa5oZ0XxsTalBDR-51" value="&lt;p style=&quot;line-height: 110%;&quot;&gt;&lt;span style=&quot;font-size: 18px;&quot;&gt;Конец&lt;/span&gt;&lt;/p&gt;" style="ellipse;whiteSpace=wrap;html=1;" vertex="1" parent="1">
          <mxGeometry x="6122.5" y="393.75" width="110" height="60" as="geometry" />
        </mxCell>
        <mxCell id="dqEvuDa5oZ0XxsTalBDR-52" value="&lt;span style=&quot;font-size: 25px;&quot;&gt;Вывод&lt;br&gt;r&lt;br&gt;&lt;/span&gt;" style="shape=parallelogram;perimeter=parallelogramPerimeter;whiteSpace=wrap;html=1;fixedSize=1;" vertex="1" parent="1">
          <mxGeometry x="6102.5" y="280.25" width="150" height="60" as="geometry" />
        </mxCell>
      </root>
    </mxGraphModel>
  </diagram>
</mxfile>
